# xmcd
#
# Track frame offsets:
#	150
#	18527
#	31312
#	42325
#	56270
#	71812
#	86117
#	100607
#	114595
#	128587
#
# Disc length: 1959 seconds
#
# Revision: 2
# Processed by: cddbd v1.5.2PL0 Copyright (c) Steve Scherf et al.
# Submitted via: EasyCDDAExtractor 10.2.0.1
#
DISCID=7e07a50a
DTITLE=Various Artist - Village Gospel Gumbo
DYEAR=2002
DGENRE=Gospel
TTITLE0=Kyle Smith - How Great Thou Art
TTITLE1=The Ritcheys - Ask And It Shall Be Given
TTITLE2=Nita Happy Trelle - Jesus
TTITLE3=Curtis Dykes - Call On King Jesus
TTITLE4=Mike Vaughn - He Spoke Pease To Me
TTITLE5=Micheal Mc Knight - Rhyme And Reason
TTITLE6=Reesa Ragland - We Got Jesus In Our Boat
TTITLE7=Yvonne Curtis - In The Garden
TTITLE8=Carl Lynn Moak - When He was On The Cross
TTITLE9=Skippy Valence - My Healing Rose
EXTD=
EXTT0=
EXTT1=
EXTT2=
EXTT3=
EXTT4=
EXTT5=
EXTT6=
EXTT7=
EXTT8=
EXTT9=
PLAYORDER=
